<svg width="26" height="30" viewBox="0 0 26 30" fill="none" xmlns="http://www.w3.org/2000/svg">
<path d="M25.0471 8.41442L16.9702 0.3375C16.863 0.230384 16.7357 0.145445 16.5956 0.0875353C16.4555 0.0296259 16.3054 -0.00011883 16.1538 3.56767e-07H2.30769C1.69565 3.56767e-07 1.10868 0.243131 0.675907 0.675908C0.243131 1.10868 0 1.69565 0 2.30769V27.6923C0 28.3043 0.243131 28.8913 0.675907 29.3241C1.10868 29.7569 1.69565 30 2.30769 30H23.0769C23.689 30 24.2759 29.7569 24.7087 29.3241C25.1415 28.8913 25.3846 28.3043 25.3846 27.6923V9.23077C25.3847 9.0792 25.355 8.92909 25.2971 8.78902C25.2392 8.64895 25.1542 8.52166 25.0471 8.41442ZM17.3077 3.93894L21.4457 8.07692H17.3077V3.93894ZM23.0769 27.6923H2.30769V2.30769H15V9.23077C15 9.53679 15.1216 9.83027 15.338 10.0467C15.5543 10.263 15.8478 10.3846 16.1538 10.3846H23.0769V27.6923ZM18.4615 16.1538C18.4615 16.4599 18.34 16.7534 18.1236 16.9697C17.9072 17.1861 17.6137 17.3077 17.3077 17.3077H8.07692C7.7709 17.3077 7.47742 17.1861 7.26103 16.9697C7.04464 16.7534 6.92308 16.4599 6.92308 16.1538C6.92308 15.8478 7.04464 15.5543 7.26103 15.338C7.47742 15.1216 7.7709 15 8.07692 15H17.3077C17.6137 15 17.9072 15.1216 18.1236 15.338C18.34 15.5543 18.4615 15.8478 18.4615 16.1538ZM18.4615 20.7692C18.4615 21.0752 18.34 21.3687 18.1236 21.5851C17.9072 21.8015 17.6137 21.9231 17.3077 21.9231H8.07692C7.7709 21.9231 7.47742 21.8015 7.26103 21.5851C7.04464 21.3687 6.92308 21.0752 6.92308 20.7692C6.92308 20.4632 7.04464 20.1697 7.26103 19.9533C7.47742 19.7369 7.7709 19.6154 8.07692 19.6154H17.3077C17.6137 19.6154 17.9072 19.7369 18.1236 19.9533C18.34 20.1697 18.4615 20.4632 18.4615 20.7692Z" fill="#FFFCF9"/>
</svg>
