<svg width="48" height="36" viewBox="0 0 48 36" fill="none" xmlns="http://www.w3.org/2000/svg">
<g clip-path="url(#clip0_2007_115)">
<path d="M5.8598 4.56442C6.08214 5.09939 6.33412 5.6638 6.59104 6.32638C7.06536 7.42577 7.6385 8.90798 8.3648 10.6699C9.72846 14.0368 11.4083 18.1301 12.7671 21.4331C13.5576 23.3521 14.3185 25.2712 15.109 27.1902C15.2671 23.6319 17.1693 20.2994 18.785 16.8393C17.4855 14.4491 16.2207 12.0883 16.2207 8.46626C16.2207 3.36687 20.4006 0 25.3118 0C29.4324 0 33.8643 2.33129 35.6381 7.11166L44.161 29.6736C45.332 32.8196 46.251 34.5816 47.6788 36H39.3783C39.6303 34.7436 39.6945 33.3252 39.0275 31.4061C38.7755 30.7141 37.9504 28.4172 37.1895 26.3411C36.7152 25.1141 36.2409 23.8233 35.7023 22.346L30.6034 8.78528V19.3276C30.6034 23.892 32.4414 30.8123 35.3861 36.0049H30.223V9.25153C30.223 4.46626 26.3889 1.2908 22.8117 1.2908C18.9777 1.2908 16.6011 4.94233 16.6011 8.46626C16.6011 11.7399 17.8067 14.1006 18.9777 16.3632C20.0251 14.0957 20.8799 11.7693 21.1022 9.25153C21.1961 7.64663 21.0083 6.07117 20.2178 4.56442H27.3128C26.8385 6.23313 26.6162 7.77423 26.6162 9.6638V30.9055C26.6162 32.7951 26.8385 34.3362 27.3128 36.0049H12.8016L1.64529 8.62331V19.1656C1.64529 23.6319 3.3894 30.7141 6.428 36H1.2352V10.8564C1.2352 8.71657 0.79053 6.57669 0 4.56442H5.8598ZM20.7168 35.2147C21.0676 33.8601 21.1911 32.5104 21.1911 30.8712V24.8933C21.1911 21.7129 20.1437 19.4798 19.037 17.3399C17.5152 20.8 15.7118 23.7301 15.5537 27.2834C15.3017 30.8417 17.5498 34.1448 20.7168 35.2147ZM21.1911 21.3693V11.1755C20.7168 13.3153 20.0202 15.0773 19.2593 16.8393C20.0202 18.2577 20.7168 19.7006 21.1911 21.3693Z" fill="#FFFCF9"/>
<path d="M41.7202 17.0503C45.1884 17.0503 48 14.2574 48 10.8123C48 7.36708 45.1884 4.57422 41.7202 4.57422C38.252 4.57422 35.4404 7.36708 35.4404 10.8123C35.4404 14.2574 38.252 17.0503 41.7202 17.0503Z" fill="#E62F32"/>
</g>
<defs>
<clipPath id="clip0_2007_115">
<rect width="48" height="36" fill="white"/>
</clipPath>
</defs>
</svg>
