<svg width="45" height="33" viewBox="0 0 45 33" fill="none" xmlns="http://www.w3.org/2000/svg">
<g clip-path="url(#clip0_2007_738)">
<path d="M5.49357 4.18405C5.70201 4.67444 5.93824 5.19182 6.1791 5.79918C6.62378 6.80695 7.16109 8.16564 7.842 9.78078C9.12043 12.8671 10.6953 16.6192 11.9691 19.647C12.7102 21.4061 13.4236 23.1652 14.1647 24.9243C14.3129 21.6626 16.0962 18.6078 17.6109 15.436C16.3927 13.245 15.2069 11.081 15.2069 7.76074C15.2069 3.0863 19.1256 0 23.7298 0C27.5929 0 31.7478 2.13701 33.4107 6.51902L41.4009 27.2008C42.4987 30.0847 43.3603 31.6998 44.6989 33H36.9171C37.1534 31.8483 37.2136 30.5481 36.5883 28.789C36.352 28.1546 35.5785 26.0491 34.8652 24.146C34.4205 23.0213 33.9758 21.838 33.4709 20.4838L28.6907 8.05317V17.717C28.6907 21.901 30.4138 28.2446 33.1745 33.0045H28.334V8.48057C28.334 4.09407 24.7396 1.18323 21.386 1.18323C17.7916 1.18323 15.5636 4.53047 15.5636 7.76074C15.5636 10.7616 16.6938 12.9256 17.7916 14.9996C18.7735 12.9211 19.5749 10.7885 19.7833 8.48057C19.8713 7.00941 19.6953 5.56524 18.9542 4.18405H25.6058C25.1611 5.7137 24.9527 7.12638 24.9527 8.85849V28.3301C24.9527 30.0622 25.1611 31.4748 25.6058 33.0045H12.0015L1.54246 7.9047V17.5685C1.54246 21.6626 3.17756 28.1546 6.02625 33H1.158V9.95174C1.158 7.99018 0.741122 6.02863 0 4.18405H5.49357ZM19.422 32.2802C19.7509 31.0384 19.8667 29.8012 19.8667 28.2986V22.8188C19.8667 19.9035 18.8847 17.8564 17.8471 15.8949C16.4205 19.0667 14.7298 21.7526 14.5816 25.0098C14.3453 28.2716 16.4529 31.2994 19.422 32.2802ZM19.8667 19.5885V10.2442C19.422 12.2057 18.7689 13.8209 18.0556 15.436C18.7689 16.7362 19.422 18.0589 19.8667 19.5885Z" fill="#262222"/>
<path d="M39.1128 15.6294C42.3642 15.6294 45 13.0693 45 9.91125C45 6.75317 42.3642 4.19305 39.1128 4.19305C35.8613 4.19305 33.2255 6.75317 33.2255 9.91125C33.2255 13.0693 35.8613 15.6294 39.1128 15.6294Z" fill="#E62F32"/>
</g>
<defs>
<clipPath id="clip0_2007_738">
<rect width="45" height="33" fill="white"/>
</clipPath>
</defs>
</svg>
