<svg width="30" height="24" viewBox="0 0 30 24" fill="none" xmlns="http://www.w3.org/2000/svg">
<path d="M28.8462 0H1.15385C0.847827 0 0.554342 0.121566 0.337954 0.337954C0.121566 0.554342 0 0.847827 0 1.15385V20.7692C0 21.3813 0.243131 21.9682 0.675907 22.401C1.10868 22.8338 1.69565 23.0769 2.30769 23.0769H27.6923C28.3043 23.0769 28.8913 22.8338 29.3241 22.401C29.7569 21.9682 30 21.3813 30 20.7692V1.15385C30 0.847827 29.8784 0.554342 29.662 0.337954C29.4457 0.121566 29.1522 0 28.8462 0ZM15 12.2812L4.12067 2.30769H25.8793L15 12.2812ZM10.7755 11.5385L2.30769 19.2995V3.7774L10.7755 11.5385ZM12.4832 13.1034L14.2139 14.6971C14.4268 14.8925 14.7053 15.001 14.9942 15.001C15.2832 15.001 15.5616 14.8925 15.7745 14.6971L17.5053 13.1034L25.8707 20.7692H4.12067L12.4832 13.1034ZM19.2245 11.5385L27.6923 3.77596V19.301L19.2245 11.5385Z" fill="#FFFCF9"/>
</svg>
