<svg width="30" height="26" viewBox="0 0 30 26" fill="none" xmlns="http://www.w3.org/2000/svg">
<path d="M29.6858 1.82936C29.8358 1.67953 29.938 1.48855 29.9794 1.28061C30.0208 1.07268 29.9996 0.85713 29.9184 0.661259C29.8372 0.465389 29.6998 0.298002 29.5235 0.18029C29.3471 0.0625778 29.1398 -0.00016652 28.9278 3.31911e-07H1.07221C0.860193 -0.00016652 0.652891 0.0625778 0.47655 0.18029C0.30021 0.298002 0.16276 0.465389 0.0816007 0.661259C0.000441933 0.85713 -0.0207761 1.07268 0.0206327 1.28061C0.0620415 1.48855 0.164215 1.67953 0.314219 1.82936L13.9286 15.4424V23.5701H9.64316C9.35901 23.5701 9.08651 23.683 8.88559 23.8839C8.68467 24.0848 8.57179 24.3573 8.57179 24.6415C8.57179 24.9256 8.68467 25.1981 8.88559 25.399C9.08651 25.6 9.35901 25.7128 9.64316 25.7128H20.3568C20.641 25.7128 20.9135 25.6 21.1144 25.399C21.3153 25.1981 21.4282 24.9256 21.4282 24.6415C21.4282 24.3573 21.3153 24.0848 21.1144 23.8839C20.9135 23.683 20.641 23.5701 20.3568 23.5701H16.0714V15.4424L29.6858 1.82936ZM3.65823 2.14274H26.3418L24.199 4.28547H5.80096L3.65823 2.14274ZM15 13.4845L7.9437 6.42821H22.0563L15 13.4845Z" fill="#FFFCF9"/>
</svg>
